<svg width="24" height="25" viewBox="0 0 24 25" fill="none" xmlns="http://www.w3.org/2000/svg">
<path d="M11.7178 7.30758C10.4035 6.73482 9.47817 5.79968 7.98226 5.55361C6.88104 5.37247 5.73751 5.41707 4.62468 5.41707C4.33072 5.41707 4.03304 5.30969 3.98383 5.65339C3.68565 7.73627 3.92906 9.98195 3.92906 12.0864C3.92906 12.4478 3.65765 14.9177 4.06599 15.0482C5.55758 15.5249 6.98391 16.1307 8.39305 16.8232C9.22282 17.2309 10.0838 17.6317 10.8414 18.157C11.0049 18.2704 11.416 18.8257 11.422 18.4301C11.4696 15.2802 11.0428 12.0858 11.4877 8.94603C11.5643 8.40539 11.6667 7.87621 11.7232 7.33384C11.7429 7.14533 12.1172 6.99723 12.2545 6.90848C13.5295 6.08437 14.7733 5.61618 16.3023 5.46959C16.7851 5.4233 18.494 5.1494 18.8163 5.5326C19.1068 5.87789 19.2052 6.48128 19.3038 6.89272C19.5331 7.84906 19.7343 8.82166 19.8899 9.7915C20.0891 11.0332 20.1247 12.2974 20.2514 13.5463C20.2869 13.8967 20.4996 14.5016 20.3719 14.8486C20.2533 15.1708 19.0925 15.459 18.8273 15.5733C17.695 16.0613 16.5388 16.4981 15.4095 16.9912C14.5744 17.3558 13.8261 17.8551 13.0159 18.262C12.4693 18.5365 12.0154 18.9015 11.5206 19.2178" stroke="#323232" stroke-width="2" stroke-linecap="round"/>
<path d="M3.52165 14.9584C3.52165 15.6285 3.52165 16.2985 3.52165 16.9685C3.52165 17.1761 3.43176 17.6689 3.57203 17.8374C3.82571 18.1422 4.56032 18.1575 4.89354 18.2265C6.12272 18.4809 7.34026 18.9535 8.57904 19.117C9.28394 19.21 9.98228 19.1743 10.6834 19.2423C12.1498 19.3846 13.509 19.3601 14.9696 19.1429C16.3284 18.9408 17.659 18.7035 19.0077 18.4599C19.3149 18.4044 19.6602 18.412 19.9533 18.287C20.3005 18.139 20.3252 17.7055 20.3874 17.3446C20.5561 16.3659 20.4726 15.3281 20.4726 14.3359" stroke="#323232" stroke-width="2" stroke-linecap="round"/>
</svg>
