<svg width="24" height="25" viewBox="0 0 24 25" fill="none" xmlns="http://www.w3.org/2000/svg">
<path d="M9.88877 17.3658C8.64203 17.3658 7.14348 16.0713 6.51599 14.8441C5.79746 13.4388 6.34904 11.6219 7.05695 10.3957C8.10951 8.57253 9.58374 7.64293 11.3846 7.30167C12.9864 6.99814 14.6495 6.94866 15.7829 8.47468C16.8775 9.94851 17.6147 11.4601 17.8103 13.4444C17.9831 15.1971 17.3658 16.255 16.0275 16.9351C13.9664 17.9826 11.5841 17.9778 9.38073 17.9778" stroke="#323232" stroke-width="2" stroke-linecap="round"/>
<path d="M16.7472 9.20568C16.776 9.18247 20.373 6.13652 20.4916 6.56498C20.5704 6.84965 20.3692 7.14977 20.3505 7.44899C20.3192 7.94856 20.5275 8.0567 20.8867 8.19133C21.2054 8.31078 22.944 8.59198 22.7213 9.29634C22.5465 9.84909 22.0275 9.94105 22.2368 10.5714C22.4011 11.0662 22.1478 11.5598 22.2321 12.073C22.3379 12.7175 23.4106 14.5177 22.345 14.4984C20.9997 14.474 19.5979 14.0863 18.2713 13.7957" stroke="#323232" stroke-width="2" stroke-linecap="round"/>
<path d="M6.16331 11.8578C5.97983 11.8106 1.57698 10.2909 1.38404 10.9284C1.30399 11.1929 1.51211 11.4747 1.52516 11.7558C1.5454 12.1917 1.35404 12.3548 1.2147 12.7134C1.02239 13.2084 1.5559 13.3046 1.72273 13.6598C2.01766 14.2877 2.02492 14.7979 1.90148 15.5128C1.78316 16.1981 1.50713 16.9314 1.52986 17.6435C1.55798 18.524 2.49136 18.0014 2.8611 17.8192C4.16986 17.1742 5.40914 16.2901 6.67135 15.5298" stroke="#323232" stroke-width="2" stroke-linecap="round"/>
<path d="M9.93213 17.2298C11.084 16.653 12.3122 16.1998 13.3003 15.2571C14.0647 14.5279 14.7758 13.7308 15.4338 12.8635C15.9379 12.1989 16.2772 11.5227 16.7018 10.8066" stroke="#323232" stroke-width="2" stroke-linecap="round"/>
<path d="M7.23633 14.7759C9.69378 13.4367 12.5536 11.509 13.4669 8.2085" stroke="#323232" stroke-width="2" stroke-linecap="round"/>
</svg>
