<?xml version="1.0" standalone="no"?>
<!DOCTYPE svg PUBLIC "-//W3C//DTD SVG 20010904//EN"
 "http://www.w3.org/TR/2001/REC-SVG-20010904/DTD/svg10.dtd">
<svg version="1.0" xmlns="http://www.w3.org/2000/svg"
 width="718.000000pt" height="660.000000pt" viewBox="0 0 718.000000 660.000000"
 preserveAspectRatio="xMidYMid meet">

<g transform="translate(0.000000,660.000000) scale(0.100000,-0.100000)"
fill="#000000" stroke="none">
<path d="M3220 6584 c-303 -19 -343 -24 -394 -50 -28 -14 -67 -38 -86 -53 -22
-18 -53 -30 -85 -35 -93 -12 -209 -46 -295 -86 -47 -21 -103 -42 -125 -45
-127 -20 -364 -90 -522 -154 -111 -44 -237 -115 -408 -231 -38 -26 -99 -61
-135 -78 -77 -37 -254 -147 -327 -204 -29 -22 -83 -72 -120 -111 -73 -77 -232
-301 -261 -366 -11 -26 -34 -51 -67 -73 -35 -23 -57 -49 -78 -88 -15 -30 -42
-69 -58 -86 -37 -38 -69 -136 -69 -210 0 -46 -9 -72 -59 -172 -32 -64 -75
-165 -95 -223 -33 -96 -36 -115 -36 -215 0 -111 11 -170 48 -259 16 -40 22
-81 26 -204 6 -140 5 -158 -15 -213 -18 -50 -21 -77 -17 -152 4 -81 10 -103
50 -199 26 -59 52 -131 58 -160 7 -28 41 -117 75 -197 125 -288 148 -346 172
-445 29 -119 51 -185 109 -325 24 -58 48 -126 54 -152 5 -25 30 -96 55 -156
25 -61 50 -135 56 -164 17 -80 52 -145 119 -222 33 -38 60 -74 60 -80 0 -27
65 -145 100 -181 21 -22 48 -64 60 -94 24 -62 46 -97 104 -162 23 -25 60 -69
84 -97 35 -43 51 -53 84 -59 33 -5 52 -17 92 -61 58 -61 106 -90 169 -98 41
-6 49 -13 118 -97 93 -114 123 -129 247 -126 82 1 92 -1 159 -34 109 -55 236
-94 368 -113 117 -17 125 -16 305 5 102 11 208 25 235 30 60 11 327 3 373 -11
19 -6 65 -10 103 -9 55 1 80 -4 117 -23 70 -35 155 -49 258 -42 49 3 175 10
279 15 156 7 205 13 271 33 62 19 88 22 115 15 19 -5 68 -6 109 -2 41 5 143 9
227 11 157 3 228 16 306 56 21 10 104 42 185 69 292 101 443 204 477 325 26
95 33 108 79 144 53 42 93 102 104 156 6 32 16 44 56 69 296 184 563 489 641
735 10 30 21 59 26 65 5 5 9 18 9 30 0 11 20 41 45 65 25 24 49 58 55 74 5 17
19 109 30 205 11 96 29 226 39 290 11 64 30 186 42 271 20 139 26 158 51 188
44 51 63 98 92 220 14 62 35 139 45 170 10 31 22 86 26 122 4 36 13 90 21 120
10 39 14 120 14 285 l0 230 -35 70 c-38 74 -60 168 -90 390 -18 130 -43 237
-76 326 -17 46 -26 58 -48 62 -23 5 -30 16 -54 89 -15 46 -27 96 -27 110 0 14
-11 42 -25 62 -14 20 -25 45 -25 56 0 10 -4 22 -10 25 -5 3 -10 21 -10 40 0
18 -11 53 -25 76 -14 24 -25 60 -25 80 0 38 -32 139 -72 229 -14 31 -33 79
-42 108 -10 28 -23 52 -30 52 -6 0 -36 25 -66 56 -30 31 -76 70 -101 88 -48
32 -186 161 -226 209 -12 15 -31 27 -42 27 -22 0 -101 45 -113 64 -19 29 -174
176 -186 176 -8 0 -28 6 -45 14 -139 64 -247 80 -522 81 -226 0 -336 -9 -472
-41 -34 -8 -72 -14 -83 -14 -12 0 -65 33 -118 73 -163 124 -81 111 -747 113
-319 1 -605 0 -635 -2z"/>
</g>
</svg>
