<svg width="24" height="25" viewBox="0 0 24 25" fill="none" xmlns="http://www.w3.org/2000/svg">
<path d="M12.1685 16.7282C10.7588 16.6875 9.46979 15.7104 8.34492 14.93C7.43381 14.2978 6.49648 13.612 5.95989 12.6143C5.52873 11.8127 5.37093 10.8609 5.19012 9.97694C5.04457 9.26534 5.02818 8.49033 5.08917 7.76858C5.14244 7.13821 5.36139 6.50428 5.98198 6.23536C6.87409 5.84877 8.2619 5.86881 9.13361 6.26059C10.084 6.68773 10.9019 7.69917 11.2852 8.65193C11.4474 9.05512 11.5837 9.47038 11.7016 9.8886C11.7372 10.0148 11.813 9.64831 11.8373 9.51949C12.0709 8.27831 12.703 7.13992 13.645 6.29214C14.218 5.77644 14.9448 5.70498 15.6893 5.66118C16.482 5.61455 17.5509 5.70757 18.1816 6.24482C19.2868 7.18631 18.9963 9.09806 18.415 10.2167C17.653 11.6833 16.1057 12.7962 14.8059 13.7501C14.2481 14.1594 13.6488 14.5191 13.1213 14.9678C12.8219 15.2224 12.4577 15.4504 12.2695 15.807C12.0519 16.2193 12.2015 16.7252 12.2789 17.1509C12.3827 17.7215 12.64 18.2113 13.0077 18.6589C13.5986 19.3783 14.8622 18.8445 15.4779 18.4286C16.0164 18.065 16.6546 17.4317 16.6546 16.7282" stroke="#323232" stroke-width="2" stroke-linecap="round"/>
</svg>
