<?xml version="1.0" standalone="no"?>
<!DOCTYPE svg PUBLIC "-//W3C//DTD SVG 20010904//EN"
 "http://www.w3.org/TR/2001/REC-SVG-20010904/DTD/svg10.dtd">
<svg version="1.0" xmlns="http://www.w3.org/2000/svg"
 width="767.000000pt" height="140.000000pt" viewBox="0 0 767.000000 140.000000"
 preserveAspectRatio="xMidYMid meet">

<g transform="translate(0.000000,140.000000) scale(0.100000,-0.100000)"
fill="#000000" stroke="none">
<path d="M2095 1369 c-27 -5 -72 -13 -100 -19 -27 -5 -151 -14 -275 -20 -124
-5 -277 -14 -340 -20 -63 -5 -176 -12 -250 -15 -247 -10 -335 -22 -469 -63
-81 -24 -231 -111 -231 -132 0 -17 -55 -37 -117 -43 -75 -6 -145 -39 -181 -85
-15 -18 -42 -48 -60 -65 -49 -46 -62 -86 -62 -187 0 -83 2 -91 48 -186 27 -54
52 -112 56 -128 4 -16 18 -49 32 -72 28 -48 171 -182 222 -208 60 -31 228 -57
407 -62 101 -4 186 -11 210 -19 23 -8 104 -16 188 -18 89 -3 153 -9 160 -16
13 -13 413 -16 421 -2 3 4 72 11 153 14 81 3 165 11 185 17 25 7 272 12 755
14 696 3 721 4 828 26 93 18 154 23 393 27 l282 5 41 -36 c22 -20 51 -41 65
-46 32 -13 781 -12 1094 0 241 9 504 33 575 51 22 5 69 21 103 35 48 19 96 27
195 34 73 6 177 14 232 19 55 6 161 15 235 21 170 13 250 29 370 72 133 49
173 71 214 120 20 24 54 65 77 93 49 58 66 96 86 185 16 74 12 117 -15 175
-11 22 -23 67 -27 100 -10 82 -38 137 -100 193 -101 91 -197 110 -600 122
-225 6 -304 13 -475 39 -113 17 -277 36 -365 41 -88 6 -230 15 -315 20 -478
31 -584 34 -770 22 -230 -15 -1276 -16 -1285 -2 -8 13 -1518 12 -1590 -1z"/>
</g>
</svg>
