<?xml version="1.0" standalone="no"?>
<!DOCTYPE svg PUBLIC "-//W3C//DTD SVG 20010904//EN"
 "http://www.w3.org/TR/2001/REC-SVG-20010904/DTD/svg10.dtd">
<svg version="1.0" xmlns="http://www.w3.org/2000/svg"
 width="767.000000pt" height="638.000000pt" viewBox="0 0 767.000000 638.000000"
 preserveAspectRatio="xMidYMid meet">

<g transform="translate(0.000000,638.000000) scale(0.100000,-0.100000)"
fill="#000000" stroke="none">
<path d="M2330 6374 c-14 -1 -117 -8 -230 -14 -113 -7 -324 -20 -470 -31 -146
-11 -341 -24 -435 -29 -335 -20 -485 -50 -612 -122 -61 -34 -159 -121 -168
-147 -7 -23 -43 -38 -110 -47 -27 -4 -63 -13 -80 -21 -42 -21 -103 -81 -125
-124 -10 -19 -32 -49 -47 -66 -42 -45 -56 -116 -51 -254 3 -94 9 -125 31 -179
l26 -65 6 -965 c4 -531 10 -1022 16 -1092 24 -331 30 -401 45 -511 18 -132 17
-153 -19 -254 -22 -60 -27 -93 -28 -190 -5 -263 -3 -351 10 -404 11 -44 11
-73 2 -139 -26 -194 -11 -350 53 -535 187 -545 183 -536 367 -755 176 -211
186 -215 432 -206 94 3 209 9 255 12 67 5 97 3 160 -14 42 -12 136 -37 207
-57 184 -49 343 -65 678 -65 289 0 371 -7 697 -61 180 -30 523 -36 885 -14
154 9 420 21 590 26 437 12 532 17 680 35 72 8 245 20 385 25 599 24 604 24
795 62 99 20 205 41 236 47 30 5 118 10 195 10 89 0 155 5 184 14 57 17 236
113 272 145 35 30 71 103 62 125 -3 9 -2 22 4 29 5 6 12 24 16 39 3 15 30 46
64 75 78 63 94 92 102 183 4 41 13 96 20 122 13 44 12 50 -9 93 -17 33 -22 58
-18 88 6 65 27 185 43 257 8 36 19 97 24 135 5 39 20 147 34 240 24 158 26
196 27 545 1 206 5 420 10 475 4 55 13 289 18 520 6 231 15 456 21 500 12 95
36 355 50 545 5 74 15 200 21 280 6 80 13 251 16 380 l5 235 -27 39 c-30 45
-34 88 -14 206 12 76 11 85 -10 158 -13 42 -30 121 -37 175 -22 166 -79 255
-207 325 -96 53 -161 63 -472 71 -237 7 -261 10 -465 49 -241 46 -307 55 -635
79 -200 14 -438 17 -1840 19 -885 1 -1621 0 -1635 -2z"/>
</g>
</svg>
