<?xml version="1.0" standalone="no"?>
<!DOCTYPE svg PUBLIC "-//W3C//DTD SVG 20010904//EN"
 "http://www.w3.org/TR/2001/REC-SVG-20010904/DTD/svg10.dtd">
<svg version="1.0" xmlns="http://www.w3.org/2000/svg"
 width="1116.000000pt" height="470.000000pt" viewBox="0 0 1116.000000 470.000000"
 preserveAspectRatio="xMidYMid meet">

<g transform="translate(0.000000,470.000000) scale(0.100000,-0.100000)"
fill="#000000" stroke="none">
<path d="M4526 4693 c-1 -1 -326 -3 -722 -5 -551 -2 -724 -6 -736 -15 -8 -7
-48 -16 -89 -19 -41 -4 -78 -10 -84 -14 -5 -5 -93 -11 -195 -15 -102 -4 -189
-11 -195 -15 -5 -5 -108 -12 -227 -16 -120 -4 -218 -10 -218 -14 0 -4 -143
-11 -318 -15 -174 -4 -319 -11 -322 -16 -3 -4 -54 -11 -113 -15 -59 -4 -107
-11 -107 -15 0 -5 -20 -9 -45 -9 -49 0 -144 -18 -160 -30 -5 -4 -29 -11 -52
-15 -24 -4 -43 -11 -43 -15 0 -5 -14 -11 -30 -15 -17 -4 -30 -10 -30 -15 0 -5
-14 -11 -30 -15 -17 -4 -30 -11 -30 -16 0 -5 -7 -9 -15 -9 -9 0 -18 -7 -21
-15 -3 -8 -16 -17 -27 -21 -12 -3 -40 -25 -62 -48 -22 -24 -48 -45 -57 -49
-10 -3 -18 -10 -18 -15 0 -5 -46 -12 -102 -16 -57 -4 -105 -11 -108 -15 -3 -4
-18 -11 -34 -15 -30 -7 -88 -43 -94 -58 -2 -4 -9 -8 -16 -8 -13 0 -46 -35 -46
-50 0 -5 -6 -13 -13 -17 -6 -4 -18 -20 -26 -35 -8 -16 -20 -28 -26 -28 -7 0
-24 -11 -39 -25 l-26 -24 0 -184 c0 -133 -3 -186 -12 -195 -9 -9 -14 -64 -16
-185 -2 -101 -7 -181 -14 -194 -18 -36 -4 -415 18 -478 15 -44 16 -61 6 -161
-7 -61 -12 -201 -12 -310 0 -206 11 -295 48 -404 10 -30 36 -104 56 -165 20
-60 43 -120 50 -135 7 -14 20 -40 29 -58 9 -19 17 -43 17 -54 0 -11 6 -34 14
-51 8 -18 24 -63 36 -102 83 -262 158 -392 360 -620 25 -28 65 -75 90 -105
114 -136 168 -177 273 -210 51 -16 91 -20 227 -20 91 0 219 7 285 15 188 23
297 20 412 -11 54 -14 120 -30 146 -36 48 -9 129 -30 266 -68 171 -48 352 -62
856 -66 473 -4 527 -8 791 -50 50 -8 110 -14 133 -14 23 0 70 -6 104 -14 305
-71 720 -76 1697 -21 146 8 369 14 495 15 127 0 277 4 335 10 58 5 220 14 360
20 140 6 314 17 385 26 223 25 400 35 1218 64 239 8 271 12 492 57 66 13 163
31 215 38 52 8 118 19 145 25 28 6 167 15 310 20 222 7 271 11 335 30 41 12
82 28 91 36 8 8 23 14 32 14 9 0 18 4 22 9 3 6 18 16 33 24 15 7 36 18 47 24
11 5 42 21 69 34 52 26 126 91 170 151 23 31 27 46 25 85 -2 30 3 59 12 78 9
17 19 42 23 58 3 15 23 39 44 55 44 32 99 79 124 107 94 102 91 96 83 144 -18
106 -9 177 26 212 31 31 30 101 -2 159 -13 25 -28 48 -33 51 -5 4 -6 11 -2 17
3 6 2 20 -2 33 -6 14 -2 53 10 108 10 47 23 124 28 171 5 47 16 114 25 150 9
36 22 117 30 181 8 64 19 127 23 140 5 13 13 53 16 89 11 96 25 186 44 270 14
64 17 137 17 484 0 319 -3 410 -12 414 -9 2 -13 32 -13 103 0 89 -15 186 -31
199 -3 3 -9 41 -13 85 -4 44 -11 82 -17 83 -5 2 -9 14 -9 27 0 13 -6 30 -14
37 -7 8 -17 24 -20 36 -4 12 -12 22 -17 22 -5 0 -9 5 -9 11 0 16 -82 99 -97
99 -7 0 -13 4 -13 10 0 5 -11 12 -25 16 -14 3 -25 10 -25 14 0 4 -18 10 -40
14 -22 3 -40 10 -40 14 0 23 -87 44 -201 49 -66 3 -122 10 -125 14 -3 5 -148
9 -322 9 -226 1 -347 5 -422 16 -58 8 -148 20 -200 26 -52 5 -97 14 -100 19
-3 4 -54 11 -113 15 -59 4 -107 10 -107 14 0 5 -57 11 -127 14 -71 4 -136 11
-145 16 -10 5 -154 13 -320 16 -167 4 -308 11 -315 16 -7 5 -73 12 -148 15
-75 3 -138 10 -141 15 -8 12 -821 10 -829 -2 -4 -7 -308 -10 -880 -10 -761 0
-874 2 -879 15 -4 12 -66 15 -431 17 -235 2 -428 2 -429 1z"/>
</g>
</svg>
