<svg width="41" height="41" viewBox="0 0 41 41" fill="none" xmlns="http://www.w3.org/2000/svg">
<mask id="mask0_113_3927" style="mask-type:alpha" maskUnits="userSpaceOnUse" x="0" y="0" width="41" height="41">
<rect x="0.708008" y="0.413574" width="40" height="40" fill="#D9D9D9"/>
</mask>
<g mask="url(#mask0_113_3927)">
<path d="M7.00722 30.8222C6.56278 30.8222 6.18864 30.6698 5.88481 30.365C5.58095 30.0603 5.42902 29.6827 5.42902 29.2325C5.42902 28.7867 5.58095 28.413 5.88481 28.1115C6.18864 27.8099 6.56278 27.6592 7.00722 27.6592H34.4088C34.8533 27.6592 35.2285 27.8116 35.5346 28.1163C35.8406 28.4211 35.9936 28.7964 35.9936 29.2422C35.9936 29.6925 35.8406 30.0683 35.5346 30.3699C35.2285 30.6714 34.8533 30.8222 34.4088 30.8222H7.00722ZM7.00722 21.9919C6.56278 21.9919 6.18864 21.8395 5.88481 21.5347C5.58095 21.2299 5.42902 20.8546 5.42902 20.4088C5.42902 19.963 5.58095 19.5893 5.88481 19.2878C6.18864 18.9862 6.56278 18.8355 7.00722 18.8355H34.4088C34.8533 18.8355 35.2285 18.9878 35.5346 19.2926C35.8406 19.5974 35.9936 19.9727 35.9936 20.4185C35.9936 20.8644 35.8406 21.2381 35.5346 21.5396C35.2285 21.8411 34.8533 21.9919 34.4088 21.9919H7.00722ZM7.00722 13.1682C6.56278 13.1682 6.18864 13.0158 5.88481 12.711C5.58095 12.4062 5.42902 12.0287 5.42902 11.5785C5.42902 11.1327 5.58095 10.759 5.88481 10.4575C6.18864 10.1559 6.56278 10.0051 7.00722 10.0051H34.4088C34.8533 10.0051 35.2285 10.1575 35.5346 10.4623C35.8406 10.7671 35.9936 11.1424 35.9936 11.5882C35.9936 12.0385 35.8406 12.4143 35.5346 12.7159C35.2285 13.0174 34.8533 13.1682 34.4088 13.1682H7.00722Z" fill="#1C1B1F"/>
</g>
</svg>
