<svg width="24" height="25" viewBox="0 0 24 25" fill="none" xmlns="http://www.w3.org/2000/svg">
<path d="M3.68982 9.78084C3.69518 10.5766 3.64291 11.4168 3.75884 12.2079C3.82606 12.6665 4.41441 12.5304 4.77448 12.5321C7.80482 12.5462 10.8356 12.5321 13.8659 12.5321C15.8942 12.5321 17.8861 12.5205 19.8908 12.2357C20.2759 12.1809 20.4447 12.2442 20.4627 11.8188C20.4886 11.2064 20.4627 10.5885 20.4627 9.97538C20.4627 9.45517 19.4186 9.69747 19.0378 9.69747C16.6663 9.69747 14.2949 9.69747 11.9234 9.69747C9.98029 9.69747 8.02661 9.67961 6.08594 9.79011C5.2221 9.83929 4.38284 10.031 3.51233 10.031" stroke="#323232" stroke-width="2" stroke-linecap="round"/>
<path d="M4.84349 12.6987C4.60928 14.8523 4.39976 16.9855 4.39976 19.1507C4.39976 19.483 4.18367 20.6701 4.68572 20.7625C5.44226 20.9019 6.3554 20.7884 7.11635 20.7811C8.3607 20.769 9.60463 20.7327 10.8486 20.7023C12.8779 20.6528 14.9038 20.5028 16.9326 20.4568C17.2432 20.4498 18.6378 20.5997 18.8455 20.3503C19.0129 20.1494 18.9378 19.3559 18.954 19.1368C19.007 18.4204 19.0391 17.7059 19.0427 16.9877C19.0497 15.6137 19.0427 14.2395 19.0427 12.8655" stroke="#323232" stroke-width="2" stroke-linecap="round"/>
<path d="M10.6119 8.94697C9.40507 8.44922 7.75319 7.71161 7.10157 6.57554C6.66706 5.81798 6.62899 4.42969 7.8559 4.46811C8.8921 4.50056 9.47638 5.67117 9.87732 6.4088C10.1527 6.91537 10.3463 7.42532 10.5528 7.95579C10.6239 8.13852 10.6443 7.02498 10.6514 6.94607C10.7489 5.85625 10.9627 4.7351 12.0713 4.16705C13.0515 3.66476 14.2007 3.58885 14.2702 4.91738C14.389 7.18664 12.3787 7.75102 10.7007 8.69686" stroke="#323232" stroke-width="2" stroke-linecap="round"/>
<path d="M10.7552 9.75708V20.1002" stroke="#323232" stroke-width="2" stroke-linecap="round"/>
</svg>
