<?xml version="1.0" standalone="no"?>
<!DOCTYPE svg PUBLIC "-//W3C//DTD SVG 20010904//EN"
 "http://www.w3.org/TR/2001/REC-SVG-20010904/DTD/svg10.dtd">
<svg version="1.0" xmlns="http://www.w3.org/2000/svg"
 width="430.000000pt" height="170.000000pt" viewBox="0 0 430.000000 170.000000"
 preserveAspectRatio="xMidYMid meet">

<g transform="translate(0.000000,170.000000) scale(0.100000,-0.100000)"
fill="#000000" stroke="none">
<path d="M2160 1694 c-14 -1 -110 -8 -215 -14 -242 -14 -570 -37 -705 -50 -58
-5 -166 -12 -240 -15 -229 -10 -330 -32 -475 -101 -105 -50 -137 -74 -214
-157 -28 -30 -41 -37 -72 -37 -35 0 -43 -6 -94 -67 -104 -127 -135 -231 -135
-458 0 -119 3 -146 25 -211 39 -117 120 -269 167 -315 98 -95 415 -208 585
-209 35 -1 66 -6 77 -15 14 -11 47 -15 110 -15 50 -1 127 -7 171 -15 154 -28
650 -13 796 24 66 16 103 18 329 14 252 -5 257 -5 425 26 94 17 244 40 335 51
297 37 324 41 458 76 74 19 160 48 192 64 32 16 122 56 200 90 396 169 436
220 410 527 -18 211 -51 317 -145 469 -38 60 -57 79 -122 122 -116 75 -289
159 -366 176 -37 9 -81 23 -97 31 -25 13 -120 15 -702 14 -370 -1 -684 -3
-698 -5z"/>
</g>
</svg>
