<svg width="24" height="25" viewBox="0 0 24 25" fill="none" xmlns="http://www.w3.org/2000/svg">
<path d="M14.4332 7.33154C12.8584 7.48093 11.3582 7.93805 9.82021 8.32898C8.49156 8.66671 7.14805 8.94705 5.82622 9.31682C5.03993 9.53678 4.26189 9.79411 3.47307 10.0026C3.38283 10.0264 3.1024 10.0494 2.98548 10.1129C2.78618 10.2211 2.70125 10.6526 2.64629 10.8657C2.50468 11.4149 2.22923 11.9136 2.11206 12.4626C2.03745 12.8122 2.06966 13.1882 2.06966 13.5463C2.06966 13.8163 2.01206 14.1665 2.27318 14.304C2.46259 14.4037 2.73413 14.4451 2.94308 14.4766C4.1962 14.6656 5.54401 14.5587 6.80564 14.5773C9.8574 14.6225 12.9118 14.5821 15.9638 14.5821C17.0774 14.5821 18.2978 14.6836 19.3812 14.3232C19.7781 14.1911 20.199 14.1836 20.6108 14.1553C20.7461 14.1461 20.9149 14.1901 21.0305 14.093C22.1132 13.1834 22.0356 11.8232 21.9463 10.3958C21.8998 9.65068 21.7836 8.92513 21.6496 8.19471C21.5902 7.87117 21.5607 7.84944 21.2976 7.84944C20.1269 7.84944 19.07 8.22984 17.9608 8.62629C16.8834 9.01141 15.7922 9.61065 14.7682 8.75577C14.633 8.64295 14.1173 7.81229 14.3569 7.67681" stroke="#323232" stroke-width="2" stroke-linecap="round"/>
<path d="M1.99329 14.5822C2.01209 15.0928 2.03628 16.1286 2.324 16.5723C2.53642 16.8999 2.90335 16.9537 3.23558 16.9895C3.95172 17.0667 4.66875 17.1448 5.38521 17.2197C7.55911 17.4469 9.80836 17.2581 11.991 17.2581C13.985 17.2581 15.9845 17.3103 17.9777 17.2533C18.7941 17.2299 19.3396 17.1856 19.8263 16.4045C20.2478 15.7281 20.9965 14.8661 20.9965 13.978" stroke="#323232" stroke-width="2" stroke-linecap="round"/>
<path d="M21.0726 10.0073C19.7787 10.1049 18.7013 10.8516 17.6044 11.5706C16.973 11.9844 16.3495 12.391 15.7982 12.9325C15.4273 13.2967 15.0506 13.5122 14.6619 13.8052" stroke="#323232" stroke-width="2" stroke-linecap="round"/>
<path d="M9.4408 8.57373C9.7678 9.00579 10.2699 9.49672 10.3983 10.0779" stroke="#323232" stroke-width="2" stroke-linecap="round"/>
<path d="M11.7815 8.33301C12.0385 8.86424 12.4099 9.31697 12.6859 9.83717" stroke="#323232" stroke-width="2" stroke-linecap="round"/>
</svg>
